<svg width="98" height="83" viewBox="0 0 98 83" fill="none" xmlns="http://www.w3.org/2000/svg">
<path d="M41.625 59H6.6665V0.70874H40.2836V11.3995H19.7963V24.3667H38.8608V35.0168H19.7963V48.3499H41.625V59ZM94.9164 0.70874L75.9331 38.2688V59H62.8033V38.5127L44.3079 0.70874H59.3075L68.6975 22.4562C68.8601 22.8627 69.3073 24.448 70.0389 27.2122H70.2015C70.5538 25.261 70.9739 23.7299 71.4617 22.6188L81.0143 0.70874H94.9164ZM10.0946 81.5681C9.20822 81.9972 8.05084 82.2117 6.62247 82.2117C4.75937 82.2117 3.2943 81.6641 2.22725 80.5688C1.1602 79.4735 0.626678 78.0141 0.626678 76.1905C0.626678 74.2484 1.22513 72.6732 2.42203 71.465C3.62457 70.2568 5.1828 69.6527 7.09671 69.6527C8.28232 69.6527 9.28162 69.8024 10.0946 70.1016V72.7353C9.28162 72.2498 8.35571 72.007 7.31689 72.007C6.17645 72.007 5.25619 72.3655 4.55612 73.0825C3.85605 73.7995 3.50601 74.7706 3.50601 75.9957C3.50601 77.1701 3.83629 78.1073 4.49684 78.8073C5.15739 79.5018 6.0466 79.849 7.16446 79.849C8.23151 79.849 9.20822 79.5893 10.0946 79.0699V81.5681ZM22.7213 82H19.9775V77.0543H14.9471V82H12.2118V69.856H14.9471V74.7H19.9775V69.856H22.7213V82ZM36.1864 82H33.2055L32.3417 79.2985H28.0227L27.1674 82H24.2033L28.624 69.856H31.8674L36.1864 82ZM31.715 77.1983L30.4108 73.1164C30.3149 72.8115 30.2471 72.4474 30.2076 72.024H30.1398C30.1116 72.3796 30.041 72.7325 29.9281 73.0825L28.607 77.1983H31.715ZM44.9345 82H37.7023V69.856H40.4377V79.7812H44.9345V82ZM53.8097 82H46.5774V69.856H49.3128V79.7812H53.8097V82ZM62.7356 82H55.4526V69.856H62.4561V72.0832H58.1879V74.7847H62.1597V77.0035H58.1879V79.7812H62.7356V82ZM75.6079 82H72.8471L67.8422 74.3698C67.5486 73.9238 67.3453 73.5878 67.2324 73.362H67.1986C67.2437 73.7911 67.2663 74.446 67.2663 75.3267V82H64.6834V69.856H67.6305L72.4491 77.2491C72.6693 77.5822 72.8725 77.9125 73.0588 78.2399H73.0927C73.0476 77.9576 73.025 77.4015 73.025 76.5716V69.856H75.6079V82ZM88.3532 81.187C87.1676 81.8701 85.694 82.2117 83.9326 82.2117C81.9791 82.2117 80.4378 81.6725 79.3087 80.5942C78.1852 79.5102 77.6234 78.0197 77.6234 76.1228C77.6234 74.2145 78.2388 72.6591 79.4696 71.4566C80.7004 70.254 82.3376 69.6527 84.3814 69.6527C85.6686 69.6527 86.8034 69.8306 87.7858 70.1863V72.7523C86.8486 72.2103 85.7025 71.9393 84.3475 71.9393C83.2127 71.9393 82.2868 72.3091 81.5698 73.0487C80.8585 73.7826 80.5028 74.765 80.5028 75.9957C80.5028 77.2435 80.8218 78.2089 81.4597 78.892C82.1033 79.5751 82.97 79.9167 84.0596 79.9167C84.7145 79.9167 85.2339 79.8236 85.6178 79.6373V77.266H83.1873V75.0811H88.3532V81.187ZM97.999 82H90.7159V69.856H97.7195V72.0832H93.4513V74.7847H97.4231V77.0035H93.4513V79.7812H97.999V82Z" fill="white"/>
</svg>
